<svg xmlns="http://www.w3.org/2000/svg" viewBox="0 0 800 450" role="img" aria-labelledby="title desc">
  <title id="title">Assistance technique</title>
  <desc id="desc">Illustration de plan technique avec regle et crayon</desc>
  <defs><linearGradient id="bg" x1="0" y1="0" x2="1" y2="1"><stop offset="0%" stop-color="#0f172a"/><stop offset="100%" stop-color="#4338ca"/></linearGradient></defs>
  <rect width="800" height="450" fill="url(#bg)"/>
  <rect x="120" y="80" width="420" height="290" rx="18" fill="#e2e8f0"/>
  <g stroke="#93c5fd" stroke-width="4">
    <line x1="160" y1="140" x2="500" y2="140"/>
    <line x1="160" y1="190" x2="500" y2="190"/>
    <line x1="160" y1="240" x2="500" y2="240"/>
    <line x1="160" y1="290" x2="500" y2="290"/>
    <line x1="220" y1="110" x2="220" y2="340"/>
    <line x1="320" y1="110" x2="320" y2="340"/>
    <line x1="420" y1="110" x2="420" y2="340"/>
  </g>
  <rect x="560" y="110" width="42" height="220" rx="10" fill="#f59e0b"/>
  <rect x="610" y="110" width="24" height="220" rx="8" fill="#f8fafc"/>
  <path d="M650 320 L720 150 L745 175 L675 345 Z" fill="#fb7185"/>
  <path d="M720 150 L750 115 L770 135 L745 175 Z" fill="#f8fafc"/>
</svg>
