<svg xmlns="http://www.w3.org/2000/svg" viewBox="0 0 800 450" role="img" aria-labelledby="title desc">
  <title id="title">Batiments et architecture</title>
  <desc id="desc">Illustration de batiments avec grue de chantier</desc>
  <defs>
    <linearGradient id="bg" x1="0" y1="0" x2="1" y2="1">
      <stop offset="0%" stop-color="#0f172a"/>
      <stop offset="100%" stop-color="#1d4ed8"/>
    </linearGradient>
  </defs>
  <rect width="800" height="450" fill="url(#bg)"/>
  <rect y="340" width="800" height="110" fill="#111827"/>
  <rect x="90" y="180" width="110" height="160" rx="8" fill="#cbd5e1"/>
  <rect x="220" y="130" width="130" height="210" rx="8" fill="#e2e8f0"/>
  <rect x="380" y="90" width="140" height="250" rx="8" fill="#f8fafc"/>
  <rect x="550" y="160" width="110" height="180" rx="8" fill="#cbd5e1"/>
  <g fill="#94a3b8">
    <rect x="105" y="205" width="18" height="22"/><rect x="135" y="205" width="18" height="22"/><rect x="165" y="205" width="18" height="22"/>
    <rect x="105" y="240" width="18" height="22"/><rect x="135" y="240" width="18" height="22"/><rect x="165" y="240" width="18" height="22"/>
    <rect x="245" y="160" width="20" height="24"/><rect x="280" y="160" width="20" height="24"/><rect x="315" y="160" width="20" height="24"/>
    <rect x="245" y="200" width="20" height="24"/><rect x="280" y="200" width="20" height="24"/><rect x="315" y="200" width="20" height="24"/>
    <rect x="405" y="125" width="22" height="26"/><rect x="440" y="125" width="22" height="26"/><rect x="475" y="125" width="22" height="26"/>
    <rect x="405" y="168" width="22" height="26"/><rect x="440" y="168" width="22" height="26"/><rect x="475" y="168" width="22" height="26"/>
  </g>
  <g stroke="#f59e0b" stroke-width="10" stroke-linecap="round">
    <line x1="600" y1="70" x2="600" y2="320"/>
    <line x1="600" y1="70" x2="700" y2="120"/>
    <line x1="680" y1="120" x2="680" y2="310"/>
    <line x1="600" y1="120" x2="680" y2="120"/>
    <line x1="660" y1="120" x2="660" y2="180"/>
  </g>
</svg>
