<svg xmlns="http://www.w3.org/2000/svg" viewBox="0 0 800 450" role="img" aria-labelledby="title desc">
  <title id="title">Forages</title>
  <desc id="desc">Illustration d une foreuse en action sur un chantier de captage d eau</desc>
  <defs>
    <linearGradient id="sky" x1="0" y1="0" x2="0" y2="1">
      <stop offset="0%" stop-color="#1e293b"/>
      <stop offset="100%" stop-color="#7c2d12"/>
    </linearGradient>
    <linearGradient id="ground" x1="0" y1="0" x2="1" y2="0">
      <stop offset="0%" stop-color="#8b5a2b"/>
      <stop offset="100%" stop-color="#6b3f1d"/>
    </linearGradient>
  </defs>
  <rect width="800" height="450" fill="url(#sky)"/>
  <rect y="305" width="800" height="145" fill="url(#ground)"/>
  <circle cx="110" cy="90" r="42" fill="#f59e0b" opacity="0.95"/>

  <g transform="translate(90 40)">
    <rect x="100" y="235" width="230" height="34" rx="16" fill="#f59e0b"/>
    <rect x="155" y="205" width="70" height="35" rx="10" fill="#cbd5e1"/>
    <rect x="240" y="194" width="34" height="80" rx="10" fill="#94a3b8"/>
    <circle cx="135" cy="290" r="38" fill="#111827"/>
    <circle cx="290" cy="290" r="38" fill="#111827"/>
    <circle cx="135" cy="290" r="16" fill="#475569"/>
    <circle cx="290" cy="290" r="16" fill="#475569"/>

    <g stroke="#e2e8f0" stroke-width="10" stroke-linecap="round" stroke-linejoin="round">
      <line x1="245" y1="55" x2="245" y2="205"/>
      <line x1="190" y1="205" x2="245" y2="55"/>
      <line x1="300" y1="205" x2="245" y2="55"/>
      <line x1="204" y1="160" x2="286" y2="160"/>
      <line x1="214" y1="120" x2="276" y2="120"/>
      <line x1="245" y1="205" x2="245" y2="310"/>
    </g>

    <rect x="233" y="310" width="24" height="58" rx="10" fill="#38bdf8"/>
    <path d="M245 368 C232 345 232 332 245 315 C258 332 258 345 245 368Z" fill="#7dd3fc"/>
  </g>

  <g transform="translate(540 210)">
    <ellipse cx="70" cy="115" rx="70" ry="22" fill="#4b5563" opacity="0.45"/>
    <circle cx="70" cy="88" r="46" fill="#334155"/>
    <circle cx="70" cy="88" r="24" fill="#38bdf8"/>
    <path d="M70 32 C48 60 38 76 38 96 a32 32 0 0 0 64 0 c0-20-10-36-32-64Z" fill="#7dd3fc"/>
    <circle cx="132" cy="58" r="8" fill="#bae6fd"/>
    <circle cx="152" cy="80" r="6" fill="#bae6fd" opacity="0.8"/>
  </g>
</svg>
