<svg xmlns="http://www.w3.org/2000/svg" viewBox="0 0 32 32" role="img" aria-label="WhatsApp">
  <path fill="#25D366" d="M27.3 4.7A15 15 0 0 0 3.7 22.6L2 30l7.6-1.7a15 15 0 1 0 17.7-23.6z"/>
  <path fill="#FFF" d="M24.4 18.8c-.4-.2-2.2-1.1-2.5-1.2-.3-.1-.6-.2-.8.2-.2.4-.9 1.2-1.1 1.4-.2.2-.4.3-.8.1-.4-.2-1.5-.5-2.8-1.7-1.1-.9-1.8-2-2-2.3-.2-.4 0-.6.2-.8.2-.2.4-.5.5-.7.2-.2.2-.4.3-.6.1-.2 0-.4 0-.6 0-.2-.8-2-1.1-2.7-.3-.7-.6-.6-.8-.6h-.7c-.2 0-.6.1-.9.4-.3.4-1.2 1.2-1.2 2.9s1.3 3.4 1.5 3.7c.2.2 2.6 4 6.3 5.6.9.4 1.6.6 2.1.8.9.3 1.7.3 2.3.2.7-.1 2.2-.9 2.5-1.8.3-.9.3-1.6.2-1.8-.1-.1-.3-.2-.7-.4z"/>
</svg>
